<svg xmlns="http://www.w3.org/2000/svg" viewBox="0 0 32 32" width="32" height="32">
  <defs>
    <linearGradient id="bg" x1="0%" y1="0%" x2="100%" y2="100%">
      <stop offset="0%" style="stop-color:#8B5CF6;stop-opacity:1" />
      <stop offset="50%" style="stop-color:#3B82F6;stop-opacity:1" />
      <stop offset="100%" style="stop-color:#06B6D4;stop-opacity:1" />
    </linearGradient>
    <linearGradient id="glow" x1="0%" y1="0%" x2="100%" y2="100%">
      <stop offset="0%" style="stop-color:#FBBF24;stop-opacity:1" />
      <stop offset="100%" style="stop-color:#F59E0B;stop-opacity:1" />
    </linearGradient>
  </defs>
  
  <!-- Background circle -->
  <circle cx="16" cy="16" r="15" fill="url(#bg)" stroke="#1E40AF" stroke-width="1.5"/>
  
  <!-- Clock face -->
  <circle cx="16" cy="16" r="12" fill="none" stroke="#FFFFFF" stroke-width="1.5" opacity="0.9"/>
  
  <!-- Clock markers (12, 3, 6, 9) -->
  <circle cx="16" cy="6" r="0.8" fill="url(#glow)"/>
  <circle cx="26" cy="16" r="0.8" fill="url(#glow)"/>
  <circle cx="16" cy="26" r="0.8" fill="url(#glow)"/>
  <circle cx="6" cy="16" r="0.8" fill="url(#glow)"/>
  
  <!-- Additional hour markers -->
  <circle cx="21.3" cy="8.7" r="0.4" fill="#FBBF24" opacity="0.8"/>
  <circle cx="23.3" cy="10.7" r="0.4" fill="#FBBF24" opacity="0.8"/>
  <circle cx="23.3" cy="21.3" r="0.4" fill="#FBBF24" opacity="0.8"/>
  <circle cx="21.3" cy="23.3" r="0.4" fill="#FBBF24" opacity="0.8"/>
  <circle cx="10.7" cy="23.3" r="0.4" fill="#FBBF24" opacity="0.8"/>
  <circle cx="8.7" cy="21.3" r="0.4" fill="#FBBF24" opacity="0.8"/>
  <circle cx="8.7" cy="10.7" r="0.4" fill="#FBBF24" opacity="0.8"/>
  <circle cx="10.7" cy="8.7" r="0.4" fill="#FBBF24" opacity="0.8"/>
  
  <!-- Clock hands -->
  <!-- Hour hand pointing to 3 -->
  <line x1="16" y1="16" x2="21" y2="16" stroke="#FFFFFF" stroke-width="1.2" stroke-linecap="round"/>
  <line x1="16" y1="16" x2="21" y2="16" stroke="url(#glow)" stroke-width="0.8" stroke-linecap="round"/>
  
  <!-- Minute hand pointing to 12 -->
  <line x1="16" y1="16" x2="16" y2="7" stroke="#FFFFFF" stroke-width="1.2" stroke-linecap="round"/>
  <line x1="16" y1="16" x2="16" y2="7" stroke="url(#glow)" stroke-width="0.8" stroke-linecap="round"/>
  
  <!-- Center dot -->
  <circle cx="16" cy="16" r="1.5" fill="url(#glow)" stroke="#FFFFFF" stroke-width="0.5"/>
</svg>
